<?xml version="1.0" encoding="UTF-8"?>
<svg xmlns="http://www.w3.org/2000/svg" width="210" height="297" viewBox="2300 6300 21000 29700" style="fill-rule:evenodd;">
  <style type="text/css">
   <![CDATA[
    .base {fill:#dddddd}
    .right {fill:#eeeeee}
    .screen {fill:#f0f0f0}
    .ZrBut {fill:#72FD67}
    .rBut {fill:#5cb85c}
    .topLed {fill:#ACDB1F}
    .ZlBut {fill:#FC382B}
.lBut {fill:#d9534f}

    .ZcBut {fill:#FEFE26}
.cBut {fill:#f0ad4e}

   ]]>
  </style>
 <g>
  <path class="screen" d="M7733 9348c-4,-313 -59,-258 361,-261 665,-5 5762,-13 5832,39 35,48 26,48 27,121 3,419 -81,3416 -94,3470 -20,83 -26,122 -134,143 -627,6 -5732,38 -5882,-27 -49,-63 -36,-185 -38,-268 -26,-1072 -58,-2144 -72,-3217zm208 -1343c-356,432 -287,961 -289,1494 -3,788 52,1576 51,2360 -2,766 32,1582 81,2315 33,485 -52,539 554,626 1794,222 3313,245 4967,7 295,-42 443,-34 505,-297 17,-73 40,-65 43,-150 1,-30 -4,-75 -1,-103 13,-117 2,-6 23,-77 28,-96 60,-1016 64,-1145 33,-1043 56,-2076 83,-3117 12,-467 58,-1107 -76,-1510 -127,-380 -425,-707 -846,-764 -911,-131 -1395,-179 -2356,-182 -859,-2 -2436,-78 -2803,543z"/>
  <path class="topLed" d="M11160 7874c-7,7 -90,168 83,172 66,2 238,19 275,-17 19,-18 27,-84 16,-122 -16,-61 -28,-53 -103,-55 -73,-2 -229,-20 -271,22zm-643 -11c-25,-10 -339,-51 -373,17 -15,29 -14,108 4,134 33,47 196,25 260,25 126,2 155,-41 109,-176zm1668 182c79,15 295,14 325,-10 23,-11 20,-8 29,-62 18,-138 -133,-123 -200,-123 -68,-1 -138,-5 -174,27 -37,32 -28,101 -9,145 10,21 7,19 29,23zm-2671 -29c35,-46 17,-107 -3,-152 -72,-21 -152,-14 -228,-16 -107,-2 -160,-17 -151,109 7,102 62,89 151,87 41,0 79,0 119,0 74,0 86,1 112,-28z"/>
  <path class="base" d="M10007 21515c-23,-112 -18,-515 29,-589 95,-149 312,-103 521,-101 207,2 414,2 621,-2 218,-3 399,-14 422,205 77,761 -145,686 -557,690 -206,1 -413,1 -620,1 -200,-1 -377,-14 -416,-204zm648 486l-1 218 304 2 -1 -219 -302 -1zm-2482 -2468c-136,55 -79,277 -69,439 15,249 53,236 290,266 143,17 944,103 1028,66 116,-50 68,-324 65,-448 -7,-268 -79,-224 -326,-243 -140,-11 -929,-104 -988,-80zm-85 -3842c-204,46 -172,227 -163,428 12,280 31,257 293,292 1358,183 1218,198 1216,-326 -1,-286 -28,-264 -297,-290 -159,-15 -968,-123 -1049,-104zm2028 183c-135,45 -88,329 -88,479 -1,272 106,229 345,233 168,2 1007,24 1108,-12 139,-50 87,-333 87,-472 0,-283 -92,-234 -340,-233 -158,1 -1044,-18 -1112,5zm3407 -183c204,46 172,227 163,428 -12,280 -30,257 -293,292 -1358,183 -1218,198 -1216,-326 2,-286 28,-264 297,-290 159,-15 968,-123 1049,-104zm-89 1308c-348,46 -692,69 -1044,103 -267,26 -245,57 -251,324 -5,243 -70,407 208,388 353,-24 697,-62 1042,-100 247,-27 221,-88 232,-338 10,-217 65,-411 -187,-377zm-3310 170c-151,55 -89,321 -81,464 30,268 102,236 330,240 1346,27 1186,68 1192,-481 3,-288 -71,-240 -337,-237 -147,2 -1047,-6 -1104,14zm-2069 -172c-152,46 -83,361 -74,496 16,240 99,204 337,233 1290,157 1143,178 1126,-401 -7,-256 -114,-212 -345,-234 -142,-13 -986,-111 -1044,-94zm-27 1484c3,131 -28,421 94,476 100,45 873,105 1028,115 227,15 334,56 329,-205 -12,-580 66,-480 -601,-543 -177,-16 -353,-33 -530,-47 -230,-19 -327,-63 -320,204zm2104 -29c-86,50 -78,65 -75,197 9,523 -8,483 350,489 1290,21 1143,88 1149,-489 3,-272 -109,-206 -345,-215 -168,1 -1001,-27 -1079,18zm3452 29c-3,131 27,421 -95,476 -100,45 -873,105 -1028,115 -227,15 -333,56 -328,-205 11,-580 -67,-480 600,-543 177,-16 353,-33 530,-47 230,-19 327,-63 321,204zm-330 1077c-1243,147 -1142,-67 -1163,507 -10,251 -8,285 259,273 1259,-54 1133,-43 1154,-505 11,-256 15,-306 -250,-275zm-3082 140c-88,29 -94,81 -93,191 4,537 -3,497 311,504 157,4 964,22 1054,-18 122,-55 87,-303 89,-452 4,-276 -52,-241 -305,-237 -164,3 -971,-16 -1056,12zm3520 -1150c13,-233 10,-418 -259,-398l-1217 122c-215,50 -180,263 -184,494 -9,511 199,417 893,350 136,-14 489,-40 596,-75 185,-61 160,-283 171,-493zm111 -2681c9,-95 -62,-181 -113,-224 -76,-64 -164,-72 -285,-55 -210,28 -420,55 -629,76 -736,72 -726,-24 -718,673 2,261 143,292 391,273 207,-16 1087,-91 1225,-164 159,-84 105,-318 129,-579zm-5712 5363c-13,-69 -11,-244 -10,-320 5,-319 346,-212 668,-181 666,63 890,-28 899,383 13,584 42,581 -684,523 -344,-27 -793,14 -873,-405zm5431 -67c-50,460 -339,441 -786,478 -701,59 -832,113 -786,-462 36,-456 54,-375 836,-436 111,-9 494,-56 580,-42 198,34 177,267 156,462zm-3541 -922c-60,-855 7,-649 1230,-669 229,-4 412,-12 425,232 9,153 21,486 -64,580 -109,121 -350,93 -545,95 -213,3 -425,2 -637,-4 -211,-6 -394,-16 -409,-234zm-1974 -318c-19,-213 -55,-442 146,-493 57,-15 1069,80 1213,95 247,25 245,169 251,414 13,559 -50,532 -779,459 -193,-20 -391,-37 -586,-65 -236,-34 -224,-190 -245,-410zm5601 -134c-18,195 7,441 -135,518 -113,62 -1012,130 -1190,134 -252,6 -300,-132 -291,-368 22,-576 -41,-515 741,-574 635,-48 920,-186 875,290zm-1952 -972c-14,466 -123,420 -897,413 -756,-8 -792,54 -803,-514 -5,-231 -4,-402 249,-409l1299 15c192,59 158,293 152,495zm-3722 -269c-13,-233 -10,-418 259,-398l1217 122c215,50 180,263 184,494 10,511 -199,417 -893,350 -136,-14 -489,-40 -596,-75 -185,-61 -160,-283 -171,-493zm3728 -770c-57,181 -253,174 -468,177 -223,3 -447,5 -670,1 -221,-4 -441,31 -542,-122 -8,-12 -180,-696 114,-785 70,-21 880,-4 998,-5 216,-1 471,-54 556,110 35,69 40,535 12,624zm2074 -352c-44,390 7,358 -914,442 -122,11 -527,58 -622,26 -203,-70 -158,-307 -157,-535 1,-270 40,-347 307,-367 215,-16 425,-34 638,-54 582,-55 828,-225 748,488zm-5875 -252c-18,-265 96,-340 351,-304 1380,197 1364,-76 1369,707 1,261 -95,341 -364,322 -214,-15 -422,-35 -634,-59 -767,-86 -679,-31 -722,-666zm2084 -670c-27,-99 -24,-552 18,-628 90,-166 349,-114 561,-112 223,2 447,3 670,-1 232,-5 455,-45 489,188 17,122 23,535 -41,616 -113,145 -325,111 -548,116 -223,4 -448,3 -670,-3 -221,-7 -432,-3 -479,-176zm-2122 -637c-9,-95 62,-181 113,-224 76,-64 164,-72 285,-55 210,28 420,55 629,76 736,72 726,-24 719,673 -3,261 -144,292 -392,273 -207,-16 -1087,-91 -1225,-164 -159,-84 -105,-318 -129,-579zm1226 -8332c1439,-99 2600,-88 4051,109 421,57 719,384 846,764 134,403 88,1043 76,1510 -27,1041 -50,2074 -83,3117 -16,505 -18,1001 -129,1475 -62,263 -210,255 -505,297 -1654,238 -3173,215 -4967,-7 -606,-87 -521,-141 -554,-626 -49,-733 -83,-1549 -81,-2315 1,-784 -54,-1572 -51,-2360 2,-533 -67,-1062 289,-1494 333,-404 539,-360 1108,-470zm5629 1024c-25,-182 -11,-532 -20,-737 -19,-433 -310,-752 -682,-835 -383,-85 -915,-158 -1324,-178 -233,-12 -327,127 -636,124 -245,-2 -493,-17 -739,-24 -493,-15 -980,-3 -1474,5 -650,11 -234,-228 -1331,-68 -218,32 -438,67 -649,104 -262,47 -388,45 -549,204 -323,320 -281,683 -284,1239 -3,500 -10,993 -12,1491 -11,3095 66,5761 233,8866 51,939 109,1899 193,2834 48,529 109,829 572,952 372,100 952,157 1358,157 1011,1 2022,0 3033,0 307,0 1124,-53 1376,-157 417,-171 420,-511 471,-1034 12,-129 17,-261 24,-391 218,-3353 395,-6691 408,-10054 3,-819 44,-1363 32,-2498z"/>
  <path class="right" d="M14619 11057c-13,3363 -189,6701 -408,10054l-9 188c-6,-102 14,-93 94,-165 99,-89 220,-282 284,-513 73,-210 88,-428 101,-618 28,-412 36,-933 48,-1387 8,-317 15,-599 26,-782 25,-426 42,-857 58,-1289 20,-508 39,-1018 73,-1526 47,-711 360,-4965 211,-5524l-1 -5 -10 -3c-41,-296 -296,-685 -435,-976 14,1168 -28,1715 -32,2546z"/>
  <g>
   <path class="cBut" d="M10007 21515c39,190 216,203 416,204 207,0 414,0 620,-1 412,-4 634,71 557,-690 -23,-219 -204,-208 -422,-205 -207,4 -414,4 -621,2 -209,-2 -426,-48 -521,101 -47,74 -52,477 -29,589z"/>
   <path class="rBut" d="M13522 21163c21,-195 42,-428 -156,-462 -86,-14 -469,33 -580,42 -782,61 -800,-20 -836,436 -46,575 85,521 786,462 447,-37 736,-18 786,-478z"/>
   <path class="lBut" d="M8091 21230c80,419 529,378 873,405 726,58 697,61 684,-523 -9,-411 -233,-320 -899,-383 -322,-31 -663,-138 -668,181 -1,76 -3,251 10,320z"/>
  </g>
 </g>
</svg>
